<svg
    focusable="false"
    aria-hidden="true"
    xmlns="http://www.w3.org/2000/svg"
    width="125"
    height="25"
    viewBox="0 0 125 25"
    aria-label="Nixon"
>
    <title id="title" lang="en">Nixon</title>
    <g>
        <path
            d="M49.4 2.8L43.2 10.4 37 2.8 32.9 2.8 41.1 13 32.9 23.1 37 23.1 43.2 15.5 49.3 23.1 53.5 23.1 45.2 13 53.5 2.8 49.4 2.8ZM24.6 23.1L27.9 23.1 27.9 2.8 24.6 2.8 24.6 23.1ZM15 17.5L3 2.8 0 2.8 0 23.1 3.3 23.1 3.3 8.4 15.3 23.1 18.3 23.1 18.3 2.8 15 2.8 15 17.5ZM94.7 17.5L82.8 2.8 79.8 2.8 79.8 23.1 83.1 23.1 83.1 8.4 95.1 23.1 98.1 23.1 98.1 2.8 94.7 2.8 94.7 17.5ZM65.2 2.7C59.5 2.7 54.9 7.3 54.9 13 54.9 18.6 59.5 23.2 65.2 23.2 70.9 23.2 75.5 18.6 75.5 13 75.5 7.3 70.9 2.7 65.2 2.7ZM65.2 19.9C61.4 19.9 58.3 16.8 58.3 13 58.3 9.1 61.4 6 65.2 6 69.1 6 72.2 9.1 72.2 13 72.2 16.8 69.1 19.9 65.2 19.9ZM117.5 0C117.5 2 117.5 10.1 117.4 12.8 117.4 14.3 117.9 15 118.7 15.7 120.3 17.1 121.1 17.7 121.8 18.6 123.3 20.6 120.2 23.1 116.5 23.1 112.9 23.1 109.7 20.6 111.2 18.6 111.9 17.7 112.7 17.1 114.3 15.7 115.1 15 115.6 14.3 115.6 12.8 115.6 10.1 115.6 2 115.6 0 115.6 0 104.4 13.4 109.3 21.7 110.5 23.7 112.9 25 116.5 25 120.1 25 122.5 23.7 123.8 21.7 128.6 13.4 117.5 0 117.5 0Z"
        ></path>
    </g>
</svg>