<svg focusable="false" width="22px" height="16px" viewBox="0 0 22 16" version="1.1" xmlns="http://www.w3.org/2000/svg" xmlns:xlink="http://www.w3.org/1999/xlink"> 
    <g transform="translate(-5.000000, -9.000000)">
        <path d="M21.9999685,21 C21.4519819,21 20.9815418,21.1951738 20.5889628,21.5850213 C20.1960062,21.9753688 20,22.4514879 20,23.0136284 C20,23.557827 20.1960062,24.0250688 20.5889628,24.4149787 C20.9815418,24.8052638 21.4519819,25 21.9999685,25 C22.5478922,25 23.0179546,24.8052638 23.4109113,24.4149787 C23.8034273,24.0250688 24,23.557827 24,23.0136284 C24,22.4514879 23.8034273,21.9753688 23.4109113,21.5850213 C23.0179546,21.1951738 22.5478922,21 21.9999685,21 Z M12.0000315,21 C11.4520449,21 10.9816047,21.1951738 10.5890258,21.5850213 C10.1960692,21.9753688 10,22.4514879 10,23.0136284 C10,23.557827 10.1960692,24.0250688 10.5890258,24.4149787 C10.9816047,24.8052638 11.4520449,25 12.0000315,25 C12.5479551,25 13.0179546,24.8052638 13.4109742,24.4149787 C13.8034902,24.0250688 14,23.557827 14,23.0136284 C14,22.4514879 13.8034902,21.9753688 13.4109742,21.5850213 C13.0179546,21.1951738 12.5479551,21 12.0000315,21 Z M7.64478648,11.1710445 L5,11.1710445 L5,9 L9.29782119,9 L11.6120007,17.5948081 L22.1612484,17.5948081 L23.9043921,12.2713592 L23.0327858,12.2713592 L23.7841777,10.1003831 L27,10.1003831 L23.6939996,19.6765511 L10.0792495,19.6765511 L7.64478648,11.1710445 Z" id="path-5"></path>
    </g>
</svg>